<svg width="16" height="16" viewBox="0 0 16 16" fill="none" xmlns="http://www.w3.org/2000/svg">
<path d="M8.33337 2.3335V4.7335C8.33337 5.29355 8.33337 5.57357 8.44237 5.78749C8.53824 5.97565 8.69122 6.12863 8.87938 6.2245C9.0933 6.3335 9.37332 6.3335 9.93337 6.3335H12.3334" stroke="#505259" stroke-width="0.666667"/>
<rect x="1.33337" y="7.3335" width="6.66667" height="4" rx="1" stroke="#505259" stroke-width="0.666667"/>
<path fill-rule="evenodd" clip-rule="evenodd" d="M8.3373 2.66681C8.59776 2.66681 8.67366 2.66895 8.74146 2.68523C8.80948 2.70156 8.87451 2.7285 8.93416 2.76505C8.99361 2.80148 9.0488 2.85364 9.23297 3.03781L11.629 5.43388C11.8132 5.61805 11.8654 5.67324 11.9018 5.73269C11.9384 5.79234 11.9653 5.85737 11.9816 5.92539C11.9979 5.9932 12 6.06909 12 6.32955V12.0668C12 12.3523 11.9998 12.5464 11.9875 12.6965C11.9756 12.8426 11.9539 12.9173 11.9274 12.9695C11.8635 13.0949 11.7615 13.1969 11.636 13.2608C11.5839 13.2874 11.5092 13.309 11.363 13.321C11.213 13.3332 11.0189 13.3335 10.7334 13.3335H5.26671C4.98118 13.3335 4.78708 13.3332 4.63705 13.321C4.49092 13.309 4.41618 13.2874 4.36405 13.2608C4.23861 13.1969 4.13662 13.0949 4.0727 12.9695C4.04614 12.9173 4.0245 12.8426 4.01256 12.6965C4.0003 12.5464 4.00004 12.3523 4.00004 12.0668V11.3335H3.33337V12.0668L3.33337 12.0806C3.33337 12.3489 3.33337 12.5704 3.34811 12.7508C3.36341 12.9381 3.39627 13.1104 3.4787 13.2721C3.60653 13.523 3.8105 13.727 4.06139 13.8548C4.22317 13.9372 4.3954 13.9701 4.58277 13.9854C4.76316 14.0002 4.98461 14.0001 5.25293 14.0001H5.26671H10.7334H10.7471C11.0155 14.0001 11.2369 14.0002 11.4173 13.9854C11.6047 13.9701 11.7769 13.9372 11.9387 13.8548C12.1896 13.727 12.3936 13.523 12.5214 13.2721C12.6038 13.1104 12.6367 12.9381 12.652 12.7508C12.6667 12.5704 12.6667 12.3489 12.6667 12.0806V12.0668V6.32955L12.6667 6.29558V6.29557C12.6668 6.08392 12.6669 5.92399 12.6299 5.76976C12.5972 5.63371 12.5433 5.50366 12.4702 5.38436C12.3874 5.24912 12.2742 5.13608 12.1245 4.98649L12.1004 4.96248L9.70437 2.5664L9.68037 2.54238C9.53077 2.39264 9.41773 2.2795 9.28249 2.19662C9.1632 2.12352 9.03314 2.06965 8.89709 2.03698C8.74286 1.99996 8.58293 2.00003 8.37126 2.00013L8.3373 2.00014H5.26671H5.25294C4.98462 2.00014 4.76316 2.00014 4.58277 2.01487C4.3954 2.03018 4.22317 2.06304 4.06139 2.14547C3.8105 2.2733 3.60653 2.47727 3.4787 2.72816C3.39627 2.88993 3.36341 3.06217 3.34811 3.24953C3.33337 3.42993 3.33337 3.65139 3.33337 3.91971L3.33337 3.93348V7.33348H4.00004V3.93348C4.00004 3.64795 4.0003 3.45385 4.01256 3.30382C4.0245 3.15768 4.04614 3.08295 4.0727 3.03082C4.13662 2.90537 4.23861 2.80339 4.36405 2.73947C4.41618 2.71291 4.49092 2.69127 4.63705 2.67933C4.78708 2.66707 4.98118 2.66681 5.26671 2.66681H8.3373Z" fill="#505259"/>
<path d="M3.29076 9.6121V8.73623H3.55031V9.6121C3.55031 9.69659 3.53179 9.76922 3.49475 9.82998C3.45771 9.89017 3.40708 9.93646 3.34284 9.96887C3.27918 10.0013 3.20742 10.0175 3.12756 10.0175C3.04481 10.0175 2.9716 10.0036 2.90795 9.97582C2.84429 9.94804 2.79423 9.9055 2.75777 9.84821C2.72131 9.79034 2.70308 9.71714 2.70308 9.62859H2.96437C2.96437 9.67489 2.97073 9.71164 2.98347 9.73884C2.99678 9.76604 3.01558 9.78542 3.03989 9.797C3.0642 9.80857 3.09342 9.81436 3.12756 9.81436C3.16055 9.81436 3.1892 9.80655 3.2135 9.79092C3.23781 9.7753 3.25661 9.75244 3.26992 9.72234C3.28381 9.69225 3.29076 9.6555 3.29076 9.6121ZM4.26472 9.5496H3.94267V9.34648H4.26472C4.31448 9.34648 4.35499 9.33837 4.38624 9.32217C4.41749 9.30539 4.44035 9.28224 4.45482 9.25273C4.46929 9.22321 4.47652 9.18994 4.47652 9.1529C4.47652 9.11528 4.46929 9.08027 4.45482 9.04787C4.44035 9.01546 4.41749 8.98942 4.38624 8.96974C4.35499 8.95006 4.31448 8.94023 4.26472 8.94023H4.03295V10.0001H3.77253V8.73623H4.26472C4.36367 8.73623 4.44845 8.75417 4.51906 8.79005C4.59024 8.82535 4.64464 8.87425 4.68225 8.93675C4.71987 8.99925 4.73867 9.07072 4.73867 9.15116C4.73867 9.23276 4.71987 9.30336 4.68225 9.36297C4.64464 9.42258 4.59024 9.46858 4.51906 9.50099C4.44845 9.5334 4.36367 9.5496 4.26472 9.5496ZM5.9201 9.33953V9.8404C5.90042 9.86413 5.87004 9.88988 5.82895 9.91766C5.78786 9.94486 5.73491 9.96829 5.6701 9.98797C5.60528 10.0076 5.52687 10.0175 5.43486 10.0175C5.35326 10.0175 5.27889 10.0042 5.21177 9.97755C5.14464 9.95035 5.08677 9.91071 5.03815 9.85863C4.99012 9.80655 4.95308 9.74289 4.92704 9.66766C4.901 9.59185 4.88798 9.50533 4.88798 9.40811V9.32912C4.88798 9.23189 4.90042 9.14538 4.92531 9.06957C4.95077 8.99376 4.98694 8.92981 5.03381 8.87773C5.08069 8.82564 5.13653 8.786 5.20135 8.7588C5.26616 8.7316 5.33821 8.718 5.41749 8.718C5.52745 8.718 5.61773 8.73594 5.68833 8.77182C5.75893 8.80712 5.81275 8.85631 5.84979 8.91939C5.8874 8.98189 5.91055 9.05365 5.91923 9.13467H5.66663C5.66026 9.09185 5.64811 9.05452 5.63017 9.02269C5.61223 8.99086 5.58648 8.96598 5.55291 8.94804C5.51992 8.9301 5.4771 8.92113 5.42444 8.92113C5.38104 8.92113 5.34226 8.9301 5.30812 8.94804C5.27455 8.9654 5.2462 8.99115 5.22305 9.0253C5.1999 9.05944 5.18225 9.10168 5.1701 9.15203C5.15795 9.20238 5.15187 9.26083 5.15187 9.32738V9.40811C5.15187 9.47408 5.15823 9.53253 5.17097 9.58346C5.1837 9.6338 5.20251 9.67634 5.22739 9.71106C5.25285 9.7452 5.2841 9.77096 5.32114 9.78832C5.35818 9.80568 5.40129 9.81436 5.45048 9.81436C5.49157 9.81436 5.52571 9.81089 5.55291 9.80394C5.58069 9.797 5.60297 9.78861 5.61975 9.77877C5.63711 9.76835 5.65042 9.75851 5.65968 9.74925V9.5253H5.42183V9.33953H5.9201Z" fill="#505259"/>
</svg>
